# xmcd CD database file
# Copyright (C) 1997 Ti Kan
# 
# Track frame offsets:
#     150
#     17095
#     35712
#     55137
#     75715
#     90482
#     103492
#     133637
#     154402
#     168490
#     181010
# 
# Disc length: 2857 seconds
# 
# Revision: 1
# Processed by: cddbd v1.4b41PL1 Copyright (c) Steve Scherf et al.
# Submitted via: DiscPlay 4.0.4
# 
DISCID=8c0b270b
DTITLE=Sleepy Ray and The Mighty Blood - where the highway turns
DYEAR=1900
DGENRE=
TTITLE0=Underneath Your Mighty Blood
TTITLE1=My Answer
TTITLE2=It's A Loving Thang
TTITLE3=You all Along
TTITLE4=Cadillacs To Heaven
TTITLE5=You've Gone Bitter
TTITLE6=Where The Highway Turns
TTITLE7=In The Way Up Down The Road
TTITLE8=Swing #9
TTITLE9=It's Only Tuesday
TTITLE10=God Is So Good
EXTD=
EXTT0=
EXTT1=
EXTT2=
EXTT3=
EXTT4=
EXTT5=
EXTT6=
EXTT7=
EXTT8=
EXTT9=
EXTT10=
PLAYORDER=
